<svg width="1448.000000" height="1032.000000" viewBox="0 0 1448 1032" fill="none" xmlns="http://www.w3.org/2000/svg" xmlns:xlink="http://www.w3.org/1999/xlink">
	<desc>
			Created with Pixso.
	</desc>
	<defs>
		<filter id="filter_3_4_dd" x="0.000000" y="0.000000" width="1448.000000" height="1032.000000" filterUnits="userSpaceOnUse" color-interpolation-filters="sRGB">
			<feFlood flood-opacity="0" result="BackgroundImageFix"/>
			<feColorMatrix in="SourceAlpha" type="matrix" values="0 0 0 0 0 0 0 0 0 0 0 0 0 0 0 0 0 0 127 0" result="hardAlpha"/>
			<feOffset dx="0" dy="4"/>
			<feGaussianBlur stdDeviation="1.33333"/>
			<feComposite in2="hardAlpha" operator="out" k2="-1" k3="1"/>
			<feColorMatrix type="matrix" values="0 0 0 0 0 0 0 0 0 0 0 0 0 0 0 0 0 0 0.25 0"/>
			<feBlend mode="normal" in2="BackgroundImageFix" result="effect_dropShadow_1"/>
			<feBlend mode="normal" in="SourceGraphic" in2="effect_dropShadow_1" result="shape"/>
		</filter>
		<clipPath id="clip3_4">
			<rect id="background" width="1440.000000" height="1024.000000" transform="translate(4.000000 0.000000)" fill="white" fill-opacity="0"/>
		</clipPath>
	</defs>
	<g filter="url(#filter_3_4_dd)">
		<g clip-path="url(#clip3_4)">
			<rect id="rect" x="4.000000" width="1440.000000" height="1024.000000" fill="#F0EAD2" fill-opacity="1.000000"/>
			<path id="path" d="M4 736L38.3 737.2C72.69 738.3 141.3 740.7 209.8 718.8C278.29 697 346.7 651 415.2 653.8C483.7 656.7 552.3 708.3 621 711.8C689.7 715.3 758.3 670.7 827 643.3C895.7 616 964.3 606 1032.8 610C1101.3 614 1169.69 632 1238.19 641.3C1306.69 650.7 1375.3 651.3 1409.7 651.7L1444 652L1444 1025L1409.7 1025C1375.3 1025 1306.69 1025 1238.19 1025C1169.69 1025 1101.3 1025 1032.8 1025C964.3 1025 895.7 1025 827 1025C758.3 1025 689.7 1025 621 1025C552.3 1025 483.7 1025 415.2 1025C346.7 1025 278.29 1025 209.8 1025C141.3 1025 72.69 1025 38.3 1025L4 1025L4 736Z" fill="#DDE5B6" fill-opacity="1.000000" fill-rule="nonzero"/>
			<path id="path" d="M4 789L38.3 788.7C72.69 788.3 141.3 787.7 209.8 775.8C278.29 764 346.7 741 415.2 727C483.7 713 552.3 708 621 721.3C689.7 734.7 758.3 766.3 827 771.3C895.7 776.3 964.3 754.7 1032.8 744.8C1101.3 735 1169.69 737 1238.19 735.2C1306.69 733.3 1375.3 727.7 1409.7 724.8L1444 722L1444 1025L1409.7 1025C1375.3 1025 1306.69 1025 1238.19 1025C1169.69 1025 1101.3 1025 1032.8 1025C964.3 1025 895.7 1025 827 1025C758.3 1025 689.7 1025 621 1025C552.3 1025 483.7 1025 415.2 1025C346.7 1025 278.29 1025 209.8 1025C141.3 1025 72.69 1025 38.3 1025L4 1025L4 789Z" fill="#D1DCA6" fill-opacity="1.000000" fill-rule="nonzero"/>
			<path id="path" d="M4 747L38.3 753.2C72.69 759.3 141.3 771.7 209.8 784.5C278.29 797.3 346.7 810.7 415.2 805.8C483.7 801 552.3 778 621 784C689.7 790 758.3 825 827 842.2C895.7 859.3 964.3 858.7 1032.8 848C1101.3 837.3 1169.69 816.7 1238.19 802.5C1306.69 788.3 1375.3 780.7 1409.7 776.8L1444 773L1444 1025L1409.7 1025C1375.3 1025 1306.69 1025 1238.19 1025C1169.69 1025 1101.3 1025 1032.8 1025C964.3 1025 895.7 1025 827 1025C758.3 1025 689.7 1025 621 1025C552.3 1025 483.7 1025 415.2 1025C346.7 1025 278.29 1025 209.8 1025C141.3 1025 72.69 1025 38.3 1025L4 1025L4 747Z" fill="#C5D397" fill-opacity="1.000000" fill-rule="nonzero"/>
			<path id="path" d="M4 879L38.3 873.3C72.69 867.7 141.3 856.3 209.8 860.3C278.29 864.3 346.7 883.7 415.2 881.3C483.7 879 552.3 855 621 848.7C689.7 842.3 758.3 853.7 827 855.3C895.7 857 964.3 849 1032.8 857.2C1101.3 865.3 1169.69 889.7 1238.19 891.3C1306.69 893 1375.3 872 1409.7 861.5L1444 851L1444 1025L1409.7 1025C1375.3 1025 1306.69 1025 1238.19 1025C1169.69 1025 1101.3 1025 1032.8 1025C964.3 1025 895.7 1025 827 1025C758.3 1025 689.7 1025 621 1025C552.3 1025 483.7 1025 415.2 1025C346.7 1025 278.29 1025 209.8 1025C141.3 1025 72.69 1025 38.3 1025L4 1025L4 879Z" fill="#B9CA87" fill-opacity="1.000000" fill-rule="nonzero"/>
			<path id="path" d="M4 896L38.3 896.7C72.69 897.3 141.3 898.7 209.8 900C278.29 901.3 346.7 902.7 415.2 906.2C483.7 909.7 552.3 915.3 621 920.7C689.7 926 758.3 931 827 935.5C895.7 940 964.3 944 1032.8 938.8C1101.3 933.7 1169.69 919.3 1238.19 913.5C1306.69 907.7 1375.3 910.3 1409.7 911.7L1444 913L1444 1025L1409.7 1025C1375.3 1025 1306.69 1025 1238.19 1025C1169.69 1025 1101.3 1025 1032.8 1025C964.3 1025 895.7 1025 827 1025C758.3 1025 689.7 1025 621 1025C552.3 1025 483.7 1025 415.2 1025C346.7 1025 278.29 1025 209.8 1025C141.3 1025 72.69 1025 38.3 1025L4 1025L4 896Z" fill="#ADC178" fill-opacity="1.000000" fill-rule="nonzero"/>
		</g>
	</g>
</svg>
