<svg width="36.000000" height="36.000000" viewBox="0 0 36 36" fill="none" xmlns="http://www.w3.org/2000/svg" xmlns:xlink="http://www.w3.org/1999/xlink">
	<desc>
			Created with Pixso.
	</desc>
	<defs>
		<clipPath id="clip3_44">
			<rect id="location-pin-svgrepo-com" width="35.999996" height="36.000000" fill="white" fill-opacity="0"/>
		</clipPath>
	</defs>
	<g clip-path="url(#clip3_44)">
		<path id="path" d="M18 31.5C23.25 26.1 28.5 21.26 28.5 15.3C28.5 9.33 23.79 4.5 18 4.5C12.2 4.5 7.5 9.33 7.5 15.3C7.5 21.26 12.75 26.1 18 31.5Z" fill="#000000" fill-opacity="0" fill-rule="nonzero"/>
		<path id="path" d="M28.5 15.3C28.5 9.33 23.79 4.5 18 4.5C12.2 4.5 7.5 9.33 7.5 15.3C7.5 21.26 12.75 26.1 18 31.5C23.25 26.1 28.5 21.26 28.5 15.3Z" stroke="#6C584C" stroke-opacity="1.000000" stroke-width="2.000000" stroke-linejoin="round"/>
		<path id="path" d="M18 19.5C20.48 19.5 22.5 17.48 22.5 15C22.5 12.51 20.48 10.5 18 10.5C15.51 10.5 13.5 12.51 13.5 15C13.5 17.48 15.51 19.5 18 19.5Z" fill="#000000" fill-opacity="0" fill-rule="nonzero"/>
		<path id="path" d="M22.5 15C22.5 12.51 20.48 10.5 18 10.5C15.51 10.5 13.5 12.51 13.5 15C13.5 17.48 15.51 19.5 18 19.5C20.48 19.5 22.5 17.48 22.5 15Z" stroke="#6C584C" stroke-opacity="1.000000" stroke-width="2.000000" stroke-linejoin="round"/>
	</g>
</svg>
